<svg width="71" height="71" viewBox="0 0 71 71" fill="none" xmlns="http://www.w3.org/2000/svg">
<path d="M33.387 63.7072V38.0574H0.930249C0.439012 38.0574 0.0530396 38.4434 0.0530396 38.9346C0.0530396 45.9523 3.56188 49.4611 10.5796 49.4611H24.6149V60.8649H15.8428C14.4042 60.8649 13.2112 62.0579 13.2112 63.4965C13.2112 64.9351 14.4042 66.1281 15.8428 66.1281H33.5626C33.4573 65.3562 33.387 64.5493 33.387 63.7072ZM52.6856 0.337402H10.5796C3.56188 0.337402 0.0530396 3.84624 0.0530396 10.8639V31.9169C0.0530396 32.4082 0.439012 32.7942 0.930249 32.7942H33.5626C34.4749 26.794 38.8255 23.1448 45.4221 23.1448C45.4221 23.1448 61.2119 23.1448 62.1593 23.1448C62.8962 23.1448 63.2121 22.5131 63.2121 22.092C63.2121 21.671 63.2121 10.8639 63.2121 10.8639C63.2121 3.84624 59.7033 0.337402 52.6856 0.337402ZM63.4614 28.4081H45.4152C40.9029 28.4081 38.6468 30.678 38.6468 35.2219V63.7004C38.6468 68.2443 40.9029 70.5142 45.4152 70.5142H63.4614C67.9738 70.5142 70.2298 68.2443 70.2298 63.7004V35.2219C70.2298 30.678 67.9738 28.4081 63.4614 28.4081ZM54.44 65.2509C52.5032 65.2509 50.9312 63.6789 50.9312 61.7421C50.9312 59.8052 52.5032 58.2332 54.44 58.2332C56.3769 58.2332 57.9489 59.8052 57.9489 61.7421C57.9489 63.6789 56.3769 65.2509 54.44 65.2509Z" fill="url(#paint0_linear_217_165)"/>
<defs>
<linearGradient id="paint0_linear_217_165" x1="0.0530398" y1="10.4834" x2="76.6956" y2="15.3782" gradientUnits="userSpaceOnUse">
<stop stop-color="white"/>
<stop offset="1" stop-color="white"/>
</linearGradient>
</defs>
</svg>
