<svg width="64" height="53" viewBox="0 0 64 53" fill="none" xmlns="http://www.w3.org/2000/svg">
<path d="M60.2945 10.8821V36.1456C60.2945 36.728 59.8241 37.1984 59.2416 37.1984H5.20589C4.62342 37.1984 4.15306 36.728 4.15306 36.1456V10.8821C4.15306 3.86443 7.6619 0.355591 14.6796 0.355591H49.768C56.7856 0.355591 60.2945 3.86443 60.2945 10.8821ZM62.7505 42.4616H1.69705C1.11458 42.4616 0.644226 42.932 0.644226 43.5145V45.9705C0.644226 50.6478 2.98462 52.9882 7.6619 52.9882H56.7856C61.4629 52.9882 63.8033 50.6478 63.8033 45.9705V43.5145C63.8033 42.932 63.333 42.4616 62.7505 42.4616Z" fill="url(#paint0_linear_217_162)"/>
<defs>
<linearGradient id="paint0_linear_217_162" x1="0.644226" y1="7.96512" x2="69.4995" y2="13.242" gradientUnits="userSpaceOnUse">
<stop stop-color="white"/>
<stop offset="1" stop-color="white"/>
</linearGradient>
</defs>
</svg>
