<svg width="86" height="85" viewBox="0 0 86 85" fill="none" xmlns="http://www.w3.org/2000/svg">
<path d="M56.9383 10.562H28.8676C21.85 10.562 18.3411 14.0708 18.3411 21.0885V63.1946C18.3411 70.2123 21.85 73.7211 28.8676 73.7211H56.9383C63.956 73.7211 67.4649 70.2123 67.4649 63.1946V21.0885C67.4649 14.0708 63.956 10.562 56.9383 10.562ZM42.903 66.7034C40.9661 66.7034 39.3942 65.1315 39.3942 63.1946C39.3942 61.2577 40.9661 59.6857 42.903 59.6857C44.8399 59.6857 46.4118 61.2577 46.4118 63.1946C46.4118 65.1315 44.8399 66.7034 42.903 66.7034ZM48.1663 23.7202H37.6397C36.1871 23.7202 35.0081 22.5412 35.0081 21.0885C35.0081 19.6359 36.1871 18.4569 37.6397 18.4569H48.1663C49.6189 18.4569 50.7979 19.6359 50.7979 21.0885C50.7979 22.5412 49.6189 23.7202 48.1663 23.7202Z" fill="url(#paint0_linear_217_31)"/>
<defs>
<linearGradient id="paint0_linear_217_31" x1="18.3411" y1="19.6934" x2="72.0772" y2="22.3627" gradientUnits="userSpaceOnUse">
<stop stop-color="white"/>
<stop offset="1" stop-color="white"/>
</linearGradient>
</defs>
</svg>
