<svg width="86" height="85" viewBox="0 0 86 85" fill="none" xmlns="http://www.w3.org/2000/svg">
<path d="M60.5296 10.5618H25.4412C18.4235 10.5618 14.9147 14.0706 14.9147 21.0883V63.1943C14.9147 70.212 18.4235 73.7209 25.4412 73.7209H60.5296C67.5472 73.7209 71.0561 70.212 71.0561 63.1943V21.0883C71.0561 14.0706 67.5472 10.5618 60.5296 10.5618ZM42.9854 66.7032C41.0485 66.7032 39.4765 65.1312 39.4765 63.1943C39.4765 61.2575 41.0485 59.6855 42.9854 59.6855C44.9223 59.6855 46.4942 61.2575 46.4942 63.1943C46.4942 65.1312 44.9223 66.7032 42.9854 66.7032ZM50.0031 23.7199H35.9677C34.515 23.7199 33.3361 22.5409 33.3361 21.0883C33.3361 19.6356 34.515 18.4567 35.9677 18.4567H50.0031C51.4557 18.4567 52.6347 19.6356 52.6347 21.0883C52.6347 22.5409 51.4557 23.7199 50.0031 23.7199Z" fill="url(#paint0_linear_217_27)"/>
<defs>
<linearGradient id="paint0_linear_217_27" x1="14.9147" y1="19.6932" x2="76.281" y2="23.1769" gradientUnits="userSpaceOnUse">
<stop stop-color="white"/>
<stop offset="1" stop-color="white"/>
</linearGradient>
</defs>
</svg>
